<svg width="44" height="44" viewBox="0 0 44 44" fill="none" xmlns="http://www.w3.org/2000/svg">
<path d="M15.6592 21.6372C15.3906 21.6372 15.1709 21.5477 15 21.3687C14.8372 21.1815 14.7559 20.9495 14.7559 20.6729V16.022C14.7559 15.6558 14.8535 15.3872 15.0488 15.2163C15.2441 15.0373 15.5086 14.9478 15.8423 14.9478H20.5298C20.7983 14.9478 21.0181 15.0332 21.189 15.2041C21.368 15.3669 21.4575 15.5825 21.4575 15.8511C21.4575 16.1115 21.368 16.3271 21.189 16.498C21.0099 16.6689 20.7821 16.7544 20.5054 16.7544H19.0283L16.2695 16.4614L16.5625 19.3179V20.6973C16.5625 20.9658 16.4771 21.1896 16.3062 21.3687C16.1434 21.5477 15.9277 21.6372 15.6592 21.6372ZM20.8838 21.9912C20.6071 21.9912 20.367 21.8895 20.1636 21.686L17.8076 19.3301L16.2207 17.5601C15.9359 17.2508 15.8341 16.9578 15.9155 16.6812C16.005 16.3963 16.1922 16.2132 16.4771 16.1318C16.7619 16.0505 17.063 16.1481 17.3804 16.4248L19.1504 17.9873L21.5186 20.3677C21.722 20.5711 21.8237 20.799 21.8237 21.0513C21.8237 21.3361 21.7342 21.564 21.5552 21.7349C21.3843 21.9058 21.1605 21.9912 20.8838 21.9912ZM29.1724 22.7603C29.4409 22.7603 29.6566 22.8498 29.8193 23.0288C29.9902 23.2078 30.0757 23.4357 30.0757 23.7124V28.3755C30.0757 28.7336 29.978 29.0021 29.7827 29.1812C29.5874 29.3521 29.3229 29.4375 28.9893 29.4375H24.3018C24.0332 29.4375 23.8094 29.3561 23.6304 29.1934C23.4595 29.0225 23.374 28.8068 23.374 28.5464C23.374 28.2778 23.4595 28.0622 23.6304 27.8994C23.8094 27.7285 24.0413 27.6431 24.3262 27.6431H25.791L28.562 27.936L28.2812 25.0796V23.7002C28.2812 23.4235 28.3626 23.1997 28.5254 23.0288C28.6963 22.8498 28.9119 22.7603 29.1724 22.7603ZM23.9355 22.4062C24.2285 22.4062 24.4767 22.508 24.6802 22.7114L27.0239 25.0552L28.6108 26.8374C28.8957 27.1466 28.9933 27.4437 28.9038 27.7285C28.8224 28.0052 28.6393 28.1842 28.3545 28.2656C28.0697 28.347 27.7686 28.2493 27.4512 27.9727L25.6812 26.4102L23.313 24.0298C23.1014 23.8263 22.9956 23.5985 22.9956 23.3462C22.9956 23.0614 23.0851 22.8335 23.2642 22.6626C23.4432 22.4917 23.667 22.4062 23.9355 22.4062ZM11.9604 33.5879C10.6421 33.5879 9.64518 33.2542 8.96973 32.5869C8.29427 31.9196 7.95654 30.9349 7.95654 29.6328V14.7646C7.95654 13.4626 8.29427 12.4779 8.96973 11.8105C9.64518 11.1351 10.6421 10.7974 11.9604 10.7974H32.8589C34.1854 10.7974 35.1864 11.1351 35.8618 11.8105C36.5373 12.4779 36.875 13.4626 36.875 14.7646V29.6328C36.875 30.9349 36.5373 31.9196 35.8618 32.5869C35.1864 33.2542 34.1854 33.5879 32.8589 33.5879H11.9604ZM12.1069 31.1953H32.7246C33.2861 31.1953 33.7174 31.0488 34.0186 30.7559C34.3197 30.4548 34.4702 30.0112 34.4702 29.4253V14.9722C34.4702 14.3862 34.3197 13.9468 34.0186 13.6538C33.7174 13.3527 33.2861 13.2021 32.7246 13.2021H12.1069C11.5373 13.2021 11.1019 13.3527 10.8008 13.6538C10.5078 13.9468 10.3613 14.3862 10.3613 14.9722V29.4253C10.3613 30.0112 10.5078 30.4548 10.8008 30.7559C11.1019 31.0488 11.5373 31.1953 12.1069 31.1953Z" fill="#EDEEF1"/>
</svg>
