<svg width="44" height="44" viewBox="0 0 44 44" fill="none" xmlns="http://www.w3.org/2000/svg">
<path d="M20.9204 29.0835C20.66 29.0835 20.4443 28.998 20.2734 28.8271C20.1107 28.6481 20.0293 28.4202 20.0293 28.1436V26.7764L20.3101 23.9199L17.5391 24.2007H16.0742C15.7894 24.2007 15.5575 24.1193 15.3784 23.9565C15.2075 23.7856 15.1221 23.57 15.1221 23.3096C15.1221 23.041 15.2075 22.8254 15.3784 22.6626C15.5575 22.4917 15.7812 22.4062 16.0498 22.4062H20.7495C21.075 22.4062 21.3354 22.4917 21.5308 22.6626C21.7261 22.8335 21.8237 23.1061 21.8237 23.4805V28.1313C21.8237 28.408 21.7383 28.6359 21.5674 28.8149C21.4046 28.994 21.189 29.0835 20.9204 29.0835ZM15.6836 29.4375C15.415 29.4375 15.1912 29.3521 15.0122 29.1812C14.8413 29.0021 14.7559 28.7783 14.7559 28.5098C14.7559 28.2493 14.8617 28.0133 15.0732 27.8018L17.4292 25.4458L19.1992 23.8711C19.5166 23.5944 19.8177 23.4967 20.1025 23.5781C20.3874 23.6595 20.5705 23.8426 20.6519 24.1274C20.7332 24.4041 20.6356 24.6971 20.3589 25.0063L18.772 26.7886L16.4282 29.1323C16.2248 29.3358 15.9766 29.4375 15.6836 29.4375ZM23.9111 15.3018C24.1715 15.3018 24.3831 15.3913 24.5459 15.5703C24.7168 15.7493 24.8022 15.9772 24.8022 16.2539V17.6211L24.5215 20.4775L27.2803 20.1968H28.7573C29.034 20.1968 29.2619 20.2822 29.4409 20.4531C29.62 20.6159 29.7095 20.8275 29.7095 21.0879C29.7095 21.3564 29.62 21.5762 29.4409 21.7471C29.2619 21.9098 29.0381 21.9912 28.7695 21.9912H24.0942C23.7606 21.9912 23.492 21.9058 23.2886 21.7349C23.0933 21.564 22.9956 21.2913 22.9956 20.917V16.2661C22.9956 15.9976 23.0811 15.7697 23.252 15.5825C23.4229 15.3953 23.6426 15.3018 23.9111 15.3018ZM29.1357 14.9478C29.4124 14.9478 29.6362 15.0373 29.8071 15.2163C29.9862 15.3872 30.0757 15.611 30.0757 15.8877C30.0757 16.14 29.974 16.3719 29.7705 16.5835L27.4023 18.9517L25.6323 20.5264C25.3149 20.7949 25.0138 20.8885 24.729 20.8071C24.4442 20.7257 24.257 20.5467 24.1675 20.27C24.0861 19.9933 24.1838 19.6963 24.4604 19.3789L26.0596 17.6089L28.4033 15.2529C28.6068 15.0495 28.8509 14.9478 29.1357 14.9478ZM11.9604 33.5879C10.6421 33.5879 9.64518 33.2542 8.96973 32.5869C8.29427 31.9196 7.95654 30.9349 7.95654 29.6328V14.7646C7.95654 13.4626 8.29427 12.4779 8.96973 11.8105C9.64518 11.1351 10.6421 10.7974 11.9604 10.7974H32.8589C34.1854 10.7974 35.1864 11.1351 35.8618 11.8105C36.5373 12.4779 36.875 13.4626 36.875 14.7646V29.6328C36.875 30.9349 36.5373 31.9196 35.8618 32.5869C35.1864 33.2542 34.1854 33.5879 32.8589 33.5879H11.9604ZM12.1069 31.1953H32.7246C33.2861 31.1953 33.7174 31.0488 34.0186 30.7559C34.3197 30.4548 34.4702 30.0112 34.4702 29.4253V14.9722C34.4702 14.3862 34.3197 13.9468 34.0186 13.6538C33.7174 13.3527 33.2861 13.2021 32.7246 13.2021H12.1069C11.5373 13.2021 11.1019 13.3527 10.8008 13.6538C10.5078 13.9468 10.3613 14.3862 10.3613 14.9722V29.4253C10.3613 30.0112 10.5078 30.4548 10.8008 30.7559C11.1019 31.0488 11.5373 31.1953 12.1069 31.1953Z" fill="#EDEEF1"/>
</svg>
