<svg width="107" height="71" viewBox="0 0 107 71" fill="none" xmlns="http://www.w3.org/2000/svg">
<path d="M40.6851 60.2051C41.0269 59.3262 41.2954 58.4229 41.4907 57.4951C41.7104 56.5918 41.8691 55.6519 41.9668 54.6753H67.1621C70.165 54.6753 72.4844 53.894 74.1201 52.3315C75.7559 50.769 76.5737 48.4009 76.5737 45.2271V14.978C76.5737 11.8042 75.7559 9.43604 74.1201 7.87354C72.4844 6.28662 70.165 5.49316 67.1621 5.49316H30.9438C27.9409 5.49316 25.6216 6.28662 23.9858 7.87354C22.3501 9.43604 21.5322 11.8042 21.5322 14.978V28.5278C21.0439 28.479 20.5435 28.4424 20.0308 28.418C19.5425 28.3691 19.0542 28.3447 18.5659 28.3447C18.0776 28.3447 17.5894 28.3691 17.1011 28.418C16.6128 28.4424 16.1245 28.479 15.6362 28.5278V14.0991C15.6362 9.65576 16.9424 6.20117 19.5547 3.73535C22.1914 1.24512 25.646 0 29.9185 0H68.1875C72.6553 0 76.1465 1.24512 78.6611 3.73535C81.2002 6.20117 82.4697 9.65576 82.4697 14.0991V46.0693C82.4697 50.5371 81.2002 54.0161 78.6611 56.5063C76.1465 58.9722 72.6553 60.2051 68.1875 60.2051H40.6851ZM100.89 54.8218C100.133 54.8218 99.3643 54.6387 98.583 54.2725C97.8018 53.8818 97.0449 53.3813 96.3125 52.771L81.4077 40.1733L81.5542 33.3252L99.0591 47.7905C99.23 47.8882 99.3765 47.9858 99.4985 48.0835C99.645 48.1567 99.7915 48.1934 99.938 48.1934C100.353 48.1934 100.561 47.9126 100.561 47.3511V12.854C100.561 12.2681 100.353 11.9751 99.938 11.9751C99.7915 11.9751 99.645 12.0239 99.4985 12.1216C99.3765 12.1948 99.23 12.2925 99.0591 12.4146L81.5542 26.8799L81.4077 20.0317L96.3125 7.43408C97.0449 6.82373 97.8018 6.33545 98.583 5.96924C99.3643 5.57861 100.133 5.3833 100.89 5.3833C102.501 5.3833 103.795 5.92041 104.772 6.99463C105.749 8.06885 106.237 9.46045 106.237 11.1694V49.0356C106.237 50.7446 105.749 52.1362 104.772 53.2104C103.795 54.2847 102.501 54.8218 100.89 54.8218ZM18.6025 70.6055C16.0635 70.6055 13.6709 70.1172 11.4248 69.1406C9.17871 68.1885 7.20117 66.8579 5.49219 65.1489C3.7832 63.4399 2.44043 61.4624 1.46387 59.2163C0.487305 56.9702 -0.000976562 54.5654 -0.000976562 52.002C-0.000976562 49.4385 0.487305 47.0459 1.46387 44.8242C2.44043 42.5781 3.7832 40.6006 5.49219 38.8916C7.20117 37.1582 9.17871 35.8154 11.4248 34.8633C13.6709 33.8867 16.0635 33.3984 18.6025 33.3984C21.166 33.3984 23.5708 33.8867 25.8169 34.8633C28.063 35.8154 30.0405 37.146 31.7495 38.855C33.4585 40.564 34.7891 42.5415 35.7412 44.7876C36.7178 47.0337 37.2061 49.4385 37.2061 52.002C37.2061 54.541 36.7178 56.9336 35.7412 59.1797C34.7646 61.4258 33.4097 63.4033 31.6763 65.1123C29.9673 66.8213 27.9897 68.1641 25.7437 69.1406C23.4976 70.1172 21.1172 70.6055 18.6025 70.6055ZM18.5659 63.6475C19.2495 63.6475 19.7866 63.4399 20.1772 63.0249C20.5923 62.6099 20.7998 62.0728 20.7998 61.4136V54.2358H27.9775C28.6367 54.2358 29.1738 54.0405 29.5889 53.6499C30.0039 53.2349 30.2114 52.6855 30.2114 52.002C30.2114 51.3184 30.0039 50.7812 29.5889 50.3906C29.1738 49.9756 28.6367 49.7681 27.9775 49.7681H20.7998V42.5903C20.7998 41.9312 20.5923 41.394 20.1772 40.979C19.7866 40.564 19.2495 40.3564 18.5659 40.3564C17.8823 40.3564 17.333 40.564 16.918 40.979C16.5273 41.394 16.332 41.9312 16.332 42.5903V49.7681H9.1543C8.49512 49.7681 7.95801 49.9756 7.54297 50.3906C7.12793 50.7812 6.92041 51.3184 6.92041 52.002C6.92041 52.6855 7.12793 53.2349 7.54297 53.6499C7.95801 54.0405 8.49512 54.2358 9.1543 54.2358H16.332V61.4136C16.332 62.0728 16.5273 62.6099 16.918 63.0249C17.333 63.4399 17.8823 63.6475 18.5659 63.6475Z" fill="#3D414D"/>
</svg>
