<svg width="22" height="22" viewBox="0 0 22 22" fill="none" xmlns="http://www.w3.org/2000/svg">
<path d="M8.15137 19.5566C8.59408 19.7061 9.04785 19.8167 9.5127 19.8887C9.97754 19.9661 10.4567 20.0049 10.9492 20.0049C11.4305 20.0049 11.9035 19.9661 12.3682 19.8887C12.833 19.8167 13.2868 19.7116 13.7295 19.5732L14.46 21.3252C13.9066 21.5078 13.3365 21.6484 12.75 21.748C12.1636 21.8532 11.5633 21.9062 10.9492 21.9062C10.3405 21.9062 9.73958 21.8532 9.14746 21.748C8.5555 21.6429 7.98294 21.499 7.42969 21.3164L8.15137 19.5566ZM20.7441 15.7969C20.2185 16.8647 19.5265 17.8247 18.6689 18.6768C17.8168 19.5289 16.8538 20.224 15.7803 20.7607L15.0576 19.0176C15.9154 18.5915 16.679 18.0404 17.3486 17.3652C18.0238 16.6901 18.5804 15.9264 19.0176 15.0742L20.7441 15.7969ZM2.89746 15.0742C3.32355 15.9208 3.87147 16.6823 4.54102 17.3574C5.21602 18.0323 5.97677 18.5828 6.82324 19.0088L6.10156 20.752C5.03353 20.2207 4.07292 19.529 3.2207 18.6768C2.37413 17.8246 1.68226 16.8648 1.14551 15.7969L2.89746 15.0742ZM14.1963 5.9502C14.9431 5.95029 15.519 6.15829 15.9229 6.57324C16.332 6.98824 16.5371 7.56409 16.5371 8.2998V12.458C16.5371 13.1995 16.3324 13.7783 15.9229 14.1934C15.519 14.6083 14.9431 14.8153 14.1963 14.8154H10.5186L8.58496 16.5342C8.38021 16.7279 8.19434 16.8242 8.02832 16.8242C7.7407 16.8242 7.59682 16.6611 7.59668 16.335V14.8154H7.28125C6.55646 14.8154 5.98631 14.6082 5.57129 14.1934C5.16178 13.7783 4.95703 13.1995 4.95703 12.458V8.2998C4.95703 7.56395 5.16195 6.98826 5.57129 6.57324C5.98633 6.1582 6.56185 5.9502 7.29785 5.9502H14.1963ZM21.3086 7.4375C21.4967 7.99084 21.6429 8.56418 21.748 9.15625C21.8531 9.74269 21.9062 10.3429 21.9062 10.957C21.9062 11.5658 21.8532 12.1667 21.748 12.7588C21.6429 13.3507 21.4967 13.9234 21.3086 14.4766L19.5654 13.7461C19.7037 13.3091 19.8089 12.8582 19.8809 12.3936C19.9583 11.9232 19.9971 11.444 19.9971 10.957C19.9971 10.4647 19.9583 9.98615 19.8809 9.52148C19.8089 9.05669 19.7038 8.6051 19.5654 8.16797L21.3086 7.4375ZM2.34961 8.17676C2.20578 8.61382 2.09503 9.06459 2.01758 9.5293C1.94564 9.98861 1.90918 10.4645 1.90918 10.957C1.90918 11.444 1.94792 11.9199 2.02539 12.3848C2.10286 12.8496 2.21126 13.3011 2.34961 13.7383L0.589844 14.4688C0.401743 13.9155 0.254551 13.3452 0.149414 12.7588C0.0498047 12.1667 0 11.5658 0 10.957C0 10.3429 0.0498584 9.74269 0.149414 9.15625C0.248997 8.56429 0.392977 7.99401 0.581055 7.44629L2.34961 8.17676ZM6.82324 2.88867C5.97656 3.32031 5.21615 3.87695 4.54102 4.55762C3.86589 5.23275 3.31478 5.99642 2.88867 6.84863L1.14551 6.11816C1.67676 5.05013 2.36849 4.08952 3.2207 3.2373C4.07292 2.38509 5.03027 1.69336 6.09277 1.16211L6.82324 2.88867ZM15.7803 1.14551C16.8482 1.68226 17.808 2.37738 18.6602 3.22949C19.5178 4.08165 20.2152 5.0447 20.752 6.11816L19.0088 6.83984C18.5771 5.9821 18.0238 5.21842 17.3486 4.54883C16.6735 3.8737 15.9098 3.32031 15.0576 2.88867L15.7803 1.14551ZM10.9404 0C11.5547 0 12.1556 0.0530599 12.7422 0.158203C13.3341 0.263339 13.9045 0.409564 14.4521 0.597656L13.7295 2.34961C13.2923 2.20573 12.8385 2.09733 12.3682 2.02539C11.9033 1.94792 11.4274 1.90918 10.9404 1.90918C10.4535 1.90918 9.97754 1.94792 9.5127 2.02539C9.04785 2.09733 8.59408 2.20573 8.15137 2.34961L7.4209 0.597656C7.97428 0.409505 8.54753 0.263346 9.13965 0.158203C9.73164 0.053106 10.3318 0 10.9404 0Z" fill="#EDEEF1"/>
</svg>
