<svg width="16" height="16" viewBox="0 0 16 16" fill="none" xmlns="http://www.w3.org/2000/svg">
<path d="M7.87695 15.7778C6.83203 15.7778 5.85303 15.5801 4.93994 15.1846C4.02686 14.7939 3.22363 14.252 2.53027 13.5586C1.83691 12.8652 1.29248 12.062 0.896973 11.1489C0.506348 10.2358 0.311035 9.25684 0.311035 8.21191C0.311035 7.16699 0.506348 6.18799 0.896973 5.2749C1.29248 4.35693 1.83691 3.55371 2.53027 2.86523C3.22363 2.17187 4.02686 1.62988 4.93994 1.23926C5.85303 0.84375 6.83203 0.645996 7.87695 0.645996C8.92188 0.645996 9.90088 0.84375 10.814 1.23926C11.7319 1.62988 12.5376 2.17187 13.231 2.86523C13.9243 3.55371 14.4663 4.35693 14.8569 5.2749C15.2524 6.18799 15.4502 7.16699 15.4502 8.21191C15.4502 9.25684 15.2524 10.2358 14.8569 11.1489C14.4663 12.062 13.9243 12.8652 13.231 13.5586C12.5376 14.252 11.7319 14.7939 10.814 15.1846C9.90088 15.5801 8.92188 15.7778 7.87695 15.7778ZM4.99854 8.94434H10.7627C10.9922 8.94434 11.1802 8.88086 11.3267 8.75391C11.4731 8.62207 11.5464 8.44629 11.5464 8.22656C11.5464 8.00195 11.4756 7.82617 11.334 7.69922C11.1924 7.56738 11.002 7.50146 10.7627 7.50146H4.99854C4.76416 7.50146 4.57373 7.56738 4.42725 7.69922C4.28564 7.82617 4.21484 8.00195 4.21484 8.22656C4.21484 8.44629 4.28809 8.62207 4.43457 8.75391C4.58105 8.88086 4.76904 8.94434 4.99854 8.94434Z" fill="#FF6C6C"/>
</svg>
