<svg width="17" height="17" viewBox="0 0 17 17" fill="none" xmlns="http://www.w3.org/2000/svg">
<path d="M17 3.8942C17 4.056 16.9533 4.19548 16.8598 4.31265C16.7664 4.42423 16.64 4.49676 16.4806 4.53024L12.6882 5.37551C12.5068 5.41456 12.3941 5.46477 12.3501 5.52615C12.3062 5.58752 12.2842 5.71584 12.2842 5.91112V13.5771C12.2842 14.1741 12.1853 14.6902 11.9874 15.1254C11.795 15.5605 11.5394 15.9148 11.2207 16.1882C10.9074 16.4616 10.5694 16.6652 10.2066 16.7991C9.84384 16.9331 9.49483 17 9.15955 17C8.43954 17 7.85144 16.788 7.39525 16.364C6.93906 15.9399 6.71096 15.3904 6.71096 14.7153C6.71096 14.0569 6.91707 13.5101 7.32929 13.075C7.74701 12.6398 8.37908 12.3301 9.22551 12.146L10.5446 11.8698C10.8799 11.7973 11.031 11.5713 10.9981 11.1919L10.9816 1.92749C10.9816 1.4142 11.2784 1.09339 11.872 0.965061L16.1178 0.0193682C16.3597 -0.0308456 16.5658 0.0165785 16.7362 0.161641C16.9121 0.306703 17 0.504768 17 0.755837V3.8942ZM0.601843 7.02419C0.431458 7.02419 0.288555 6.96561 0.173133 6.84844C0.057711 6.73128 0 6.58901 0 6.42163C0 6.25425 0.057711 6.11198 0.173133 5.99481C0.294051 5.87764 0.436954 5.81906 0.601843 5.81906H7.9064C8.07129 5.81906 8.21144 5.87764 8.32687 5.99481C8.44779 6.11198 8.50824 6.25425 8.50824 6.42163C8.50824 6.58901 8.45053 6.73128 8.33511 6.84844C8.21969 6.96561 8.07679 7.02419 7.9064 7.02419H0.601843Z" fill="#EDEEF1"/>
<path d="M3.94231 2.27899C3.82689 2.39615 3.76918 2.54122 3.76918 2.71418L3.76918 10.1291C3.76918 10.302 3.82689 10.4471 3.94231 10.5643C4.05774 10.6814 4.19789 10.74 4.36278 10.74C4.52767 10.74 4.66782 10.6786 4.78325 10.5559C4.89867 10.4387 4.95638 10.2965 4.95638 10.1291L4.95638 2.71418C4.95638 2.5468 4.89867 2.40173 4.78325 2.27899C4.66782 2.16182 4.52767 2.10324 4.36278 2.10324C4.19789 2.10324 4.05774 2.16182 3.94231 2.27899Z" fill="#EDEEF1"/>
</svg>
